<?xml version="1.0" encoding="UTF-8" standalone="no"?>
<!-- Created with Inkscape (http://www.inkscape.org/) -->

<svg
   width="56.881256mm"
   height="56.881672mm"
   viewBox="0 0 56.881256 56.881672"
   version="1.1"
   id="svg1"
   xml:space="preserve"
   sodipodi:docname="drawing.svg"
   inkscape:version="1.4-beta3 (01c8a1c, 2024-08-28, custom)"
   inkscape:export-filename="0verts.svg"
   inkscape:export-xdpi="96"
   inkscape:export-ydpi="96"
   xmlns:inkscape="http://www.inkscape.org/namespaces/inkscape"
   xmlns:sodipodi="http://sodipodi.sourceforge.net/DTD/sodipodi-0.dtd"
   xmlns="http://www.w3.org/2000/svg"
   xmlns:svg="http://www.w3.org/2000/svg"><sodipodi:namedview
     id="namedview1"
     pagecolor="#ffffff"
     bordercolor="#000000"
     borderopacity="0.25"
     inkscape:showpageshadow="2"
     inkscape:pageopacity="0.0"
     inkscape:pagecheckerboard="0"
     inkscape:deskcolor="#d1d1d1"
     inkscape:document-units="mm"
     inkscape:zoom="0.72641739"
     inkscape:cx="237.46678"
     inkscape:cy="747.50413"
     inkscape:window-width="1440"
     inkscape:window-height="890"
     inkscape:window-x="-6"
     inkscape:window-y="-6"
     inkscape:window-maximized="1"
     inkscape:current-layer="layer2-2-2-2"
     showgrid="false"><inkscape:page
       x="-7.5310194e-14"
       y="0"
       width="56.881252"
       height="56.881672"
       id="page2"
       margin="0"
       bleed="0" /></sodipodi:namedview><defs
     id="defs1" /><g
     inkscape:groupmode="layer"
     id="layer2-2-2-2"
     inkscape:label="Layer 2"
     transform="matrix(0.57172836,0,0,0.57172836,-25.575758,-93.143804)"
     style="display:inline"><ellipse
       style="fill:#3968dc;fill-opacity:1;stroke:#ffffff;stroke-width:8;stroke-linecap:round;stroke-dasharray:none;stroke-opacity:1"
       id="path1-3-7-2"
       cx="94.479103"
       cy="212.66154"
       rx="45.744999"
       ry="45.745354" /><path
       d="m 169.71442,294.41513 c -1.4212,9.044 -1.615,14.77187 -0.73213,21.16727 0.323,2.34714 0.60292,2.8424 1.48579,2.584 0.86134,-0.23686 2.907,-1.24893 3.9406,-1.89494 1.27047,-0.83979 1.05514,-1.11973 -0.66753,-0.96899 -1.31353,0.10766 -1.50733,0.0862 -1.65807,-0.27993 -0.0862,-0.23688 -0.1938,-2.88547 -0.2584,-5.90014 -0.10766,-7.32134 0.17227,-10.12067 0.92594,-8.54873 0.646,1.37812 2.3256,4.50046 4.02673,7.47207 1.05514,1.83033 2.15333,3.74679 2.4548,4.26359 0.62447,1.11974 0.5814,1.2274 -1.46427,3.14387 -3.18693,3.01467 -8.11806,5.59866 -12.01559,6.30926 -0.53833,0.0862 -0.99053,0.25841 -1.01207,0.38761 -0.043,0.10766 0.34453,0.53833 0.86133,0.92593 1.78726,1.33506 6.22313,5.83553 8.95787,9.08707 0.646,0.7752 1.2274,1.44273 1.292,1.50733 0.0646,0.0647 0.53834,0.646 1.07667,1.292 1.14126,1.37813 1.24893,1.52887 3.98367,4.69427 4.45739,5.18953 9.75459,9.9484 11.08966,9.9484 1.37813,0 6.48153,-4.5866 11.1112,-9.96993 2.67014,-3.12234 2.82087,-3.27307 3.96213,-4.67274 1.07668,-1.31353 1.31354,-1.59346 3.876,-4.522 2.15334,-2.4548 6.02934,-6.30927 7.40747,-7.32133 0.53834,-0.40914 0.94747,-0.86134 0.9044,-0.969 -0.0215,-0.1292 -0.47373,-0.30147 -1.01207,-0.38761 -2.56246,-0.47372 -6.07239,-1.98106 -8.91479,-3.83292 -1.57194,-1.03361 -4.47894,-3.59608 -4.86654,-4.32821 -0.23687,-0.43067 -0.34453,-0.1938 2.47634,-5.08187 1.938,-3.33766 3.66066,-6.48153 4.17746,-7.64433 0.1938,-0.43066 0.4522,-0.7752 0.5814,-0.73213 0.10767,0.043 0.30147,0.79673 0.3876,1.6796 0.21533,1.91646 0.0646,12.61854 -0.17226,13.19994 -0.15074,0.34452 -0.34454,0.38759 -1.65807,0.30146 -1.07667,-0.0862 -1.46427,-0.043 -1.46427,0.15074 0,0.5814 4.04827,2.69166 5.14647,2.69166 0.5814,0 0.66753,-0.0862 0.77519,-0.81826 0.0647,-0.43067 0.17227,-0.99055 0.23688,-1.22741 0.043,-0.23686 0.23686,-2.08873 0.40913,-4.09133 0.38759,-4.50047 0.10766,-10.4652 -0.75367,-15.61166 -0.10766,-0.64601 -0.2584,-1.55041 -0.32299,-2.00261 -0.0646,-0.43067 -0.19381,-0.79673 -0.27995,-0.79673 -0.17225,0 -0.71059,0.49526 -4.99572,4.41433 -1.72268,1.57193 -4.522,4.28514 -6.22314,6.02934 l -3.12233,3.14386 -1.07667,-0.1292 c -1.1628,-0.15073 -2.88547,-0.4522 -4.37127,-0.7752 -1.1628,-0.2584 -3.27306,-0.2584 -4.43586,0 -1.4858,0.323 -3.20847,0.62447 -4.34973,0.7752 l -1.07667,0.1292 -3.98367,-3.96214 c -2.1964,-2.17485 -5.2972,-5.14646 -6.89066,-6.61073 -1.59348,-1.46426 -2.92854,-2.73473 -2.97161,-2.8424 -0.1938,-0.47373 -0.68906,-0.0862 -0.79673,0.62447 z m 13.11379,29.24227 c 2.21794,0.66754 4.02674,2.3256 4.60814,4.199 0.47374,1.52887 0.64601,2.36866 0.49527,2.36866 -0.0645,0 -0.53833,-0.40913 -1.0336,-0.92592 -0.53834,-0.55988 -1.70114,-1.31354 -2.99313,-1.98108 -3.18694,-1.59346 -5.46947,-3.18693 -5.46947,-3.8114 0,-0.30146 3.27306,-0.19379 4.39279,0.15074 z m 22.73921,-0.10767 c 0,0.55987 -2.4548,2.26101 -5.4264,3.7468 -1.31353,0.66754 -2.47633,1.42121 -3.1008,2.04568 l -0.99053,0.99053 0.15072,-0.96901 c 0.40915,-2.7778 2.15335,-4.84499 4.86654,-5.6848 1.09821,-0.34453 4.50047,-0.45219 4.50047,-0.1292 z m -11.39114,18.54021 c 1.14128,0.38759 1.16281,0.53833 0.27994,1.42119 -1.2274,1.22741 -2.02414,1.78727 -2.54093,1.78727 -0.47374,0 -2.86393,-2.0672 -2.97161,-2.56247 -0.15072,-0.73212 3.59608,-1.18432 5.2326,-0.64599 z"
       id="path1-4"
       style="display:inline;fill:#0f2556;fill-opacity:1;stroke:none;stroke-width:0.0215333"
       transform="translate(-98.203738,-107.25198)" /></g></svg>
