<?xml version="1.0" encoding="UTF-8" standalone="no"?>
<!-- Created with Inkscape (http://www.inkscape.org/) -->

<svg
   width="56.881256mm"
   height="56.881657mm"
   viewBox="0 0 56.881256 56.881657"
   version="1.1"
   id="svg1"
   xml:space="preserve"
   sodipodi:docname="drawing.svg"
   inkscape:version="1.4-beta3 (01c8a1c, 2024-08-28, custom)"
   inkscape:export-filename="0roses.svg"
   inkscape:export-xdpi="96"
   inkscape:export-ydpi="96"
   xmlns:inkscape="http://www.inkscape.org/namespaces/inkscape"
   xmlns:sodipodi="http://sodipodi.sourceforge.net/DTD/sodipodi-0.dtd"
   xmlns="http://www.w3.org/2000/svg"
   xmlns:svg="http://www.w3.org/2000/svg"><sodipodi:namedview
     id="namedview1"
     pagecolor="#ffffff"
     bordercolor="#000000"
     borderopacity="0.25"
     inkscape:showpageshadow="2"
     inkscape:pageopacity="0.0"
     inkscape:pagecheckerboard="0"
     inkscape:deskcolor="#d1d1d1"
     inkscape:document-units="mm"
     inkscape:zoom="0.72641739"
     inkscape:cx="237.46678"
     inkscape:cy="747.50413"
     inkscape:window-width="1440"
     inkscape:window-height="890"
     inkscape:window-x="-6"
     inkscape:window-y="-6"
     inkscape:window-maximized="1"
     inkscape:current-layer="layer2-2-2-2"
     showgrid="false"><inkscape:page
       x="-7.3331464e-14"
       y="0"
       width="56.881252"
       height="56.881657"
       id="page2"
       margin="0"
       bleed="0" /></sodipodi:namedview><defs
     id="defs1" /><g
     inkscape:groupmode="layer"
     id="layer2-2-7"
     inkscape:label="Layer 2"
     transform="matrix(0.57172836,0,0,0.57172836,-25.575757,-93.14382)"
     style="display:inline"><ellipse
       style="fill:#ffdb7a;fill-opacity:1;stroke:#ffffff;stroke-width:8;stroke-linecap:round;stroke-dasharray:none;stroke-opacity:1"
       id="path1-3-9"
       cx="94.479103"
       cy="212.66154"
       rx="45.744999"
       ry="45.745354" /><g
       transform="matrix(0.00382483,0,0,-0.00382483,66.611824,243.41955)"
       fill="#000000"
       stroke="none"
       id="g6"
       style="fill:#e88c00;fill-opacity:1"><path
         d="m 7505,15334 c -22,-2 -110,-9 -195,-15 -578,-40 -1078,-150 -1398,-305 -143,-69 -225,-145 -361,-333 -135,-187 -189,-234 -291,-255 -19,-4 -111,-11 -205,-16 -95,-5 -211,-18 -263,-29 -282,-61 -604,-216 -821,-395 -73,-60 -161,-165 -161,-192 0,-12 274,-14 1826,-14 h 1826 l 81,76 c 352,331 899,607 1504,758 446,111 859,158 1388,158 303,0 502,-11 803,-43 107,-11 196,-19 198,-16 7,7 -317,121 -550,193 -692,215 -1391,344 -2236,415 -120,10 -1063,21 -1145,13 z"
         id="path1-0"
         style="fill:#e88c00;fill-opacity:1" /><path
         d="m 9980,14090 c -586,-27 -1131,-164 -1531,-385 -128,-71 -262,-159 -354,-234 -38,-31 -75,-61 -83,-66 -10,-8 -4,-22 30,-66 24,-30 59,-87 78,-125 l 35,-71 50,-6 c 28,-4 88,-7 135,-7 209,0 693,-43 970,-86 537,-83 961,-210 1365,-409 321,-158 568,-336 806,-582 494,-511 789,-1225 893,-2163 36,-322 41,-439 41,-965 -1,-541 -8,-726 -46,-1094 -128,-1263 -550,-2375 -1261,-3320 -43,-57 -77,-106 -75,-107 4,-4 243,82 387,139 509,200 960,475 1380,843 128,111 398,386 501,509 657,783 1081,1757 1238,2845 48,330 56,457 56,890 0,464 -10,578 -80,926 -139,685 -442,1328 -886,1879 -719,892 -1770,1480 -2902,1625 -129,16 -534,44 -572,38 -5,-1 -84,-4 -175,-8 z"
         id="path2"
         style="fill:#e88c00;fill-opacity:1" /><path
         d="m 2130,13133 c -499,-80 -857,-303 -1078,-673 -70,-118 -106,-228 -98,-300 12,-104 78,-205 159,-246 17,-9 34,-18 36,-20 2,-2 -15,-31 -38,-64 -182,-259 -205,-645 -66,-1103 79,-261 140,-360 255,-411 86,-39 164,-33 390,27 350,92 635,136 935,144 231,6 349,-9 452,-56 75,-36 93,-65 93,-152 0,-77 -28,-130 -94,-177 -126,-91 -323,-145 -629,-173 -175,-16 -638,-6 -822,17 -200,26 -266,24 -337,-10 -95,-45 -131,-96 -182,-255 -126,-392 -155,-798 -86,-1221 45,-276 138,-568 256,-802 l 46,-91 56,64 c 254,292 634,558 1057,739 250,108 627,220 905,269 311,56 267,54 1200,61 949,8 933,7 1122,66 414,130 643,442 747,1020 52,293 71,588 80,1249 l 7,520 27,57 c 30,61 84,116 144,146 21,11 81,29 134,40 202,44 350,117 476,236 126,118 277,337 314,456 62,201 14,417 -123,554 -105,104 5,96 -1275,96 H 5080 v -27 c -1,-61 -32,-173 -71,-253 -33,-67 -59,-102 -123,-165 -127,-126 -268,-185 -441,-185 -174,0 -314,59 -441,185 -116,116 -175,233 -190,381 l -7,64 -826,-1 c -454,-1 -837,-4 -851,-6 z"
         id="path3"
         style="fill:#e88c00;fill-opacity:1" /><path
         d="m 8226,12419 c -10,-45 -14,-85 -9,-88 4,-4 42,-22 83,-41 363,-160 746,-440 1017,-743 556,-619 839,-1399 879,-2417 22,-574 -140,-1081 -550,-1720 -120,-188 -234,-350 -503,-718 -135,-183 -304,-421 -377,-530 -571,-845 -815,-1527 -816,-2278 0,-149 17,-405 28,-415 4,-4 86,18 182,47 277,86 1038,315 1353,408 l 288,85 106,98 c 302,278 651,696 896,1068 568,866 860,1817 928,3025 15,276 15,1118 0,1345 -80,1187 -412,1897 -1105,2359 -531,355 -1219,534 -2272,591 l -110,6 z"
         id="path4-9"
         style="fill:#e88c00;fill-opacity:1" /><path
         d="m 7808,11670 c -54,-60 -98,-112 -98,-114 0,-3 29,-50 65,-104 406,-621 551,-1386 399,-2117 -105,-504 -346,-1011 -712,-1500 -271,-361 -389,-476 -887,-863 -553,-429 -749,-596 -975,-828 -251,-258 -413,-480 -540,-739 -109,-223 -175,-425 -217,-664 -22,-122 -24,-526 -5,-646 83,-503 303,-966 660,-1388 41,-49 81,-91 88,-94 7,-2 100,31 206,76 359,149 776,305 1298,485 l 215,74 -5,103 c -10,209 -3,612 14,767 78,721 303,1357 742,2092 122,206 321,504 598,900 516,736 690,1043 798,1415 81,278 91,597 33,1047 -113,881 -514,1577 -1145,1988 -88,57 -369,202 -415,214 -16,4 -41,-18 -117,-104 z"
         id="path5-4"
         style="fill:#e88c00;fill-opacity:1" /><path
         d="m 7143,11232 c -8,-5 -15,-119 -22,-392 -14,-510 -36,-774 -87,-1080 -182,-1077 -687,-1639 -1575,-1754 -64,-9 -217,-18 -340,-21 -573,-16 -1001,-103 -1459,-296 -443,-187 -768,-410 -1236,-846 -290,-271 -419,-425 -582,-695 -342,-567 -513,-1115 -529,-1703 -13,-473 69,-905 262,-1377 288,-703 868,-1455 1580,-2048 108,-90 264,-210 317,-244 l 27,-17 24,38 c 13,21 54,93 90,160 175,326 345,553 593,793 206,200 405,348 649,485 66,37 123,70 127,73 4,4 -18,39 -48,77 -415,518 -676,1150 -735,1779 -15,160 -7,501 16,646 81,525 286,995 626,1432 280,361 612,667 1279,1178 380,291 510,405 643,559 374,436 649,932 762,1376 52,205 66,305 72,510 6,210 -4,330 -43,517 -52,248 -166,517 -313,736 -45,67 -83,122 -84,122 -1,0 -7,-4 -14,-8 z"
         id="path6-8"
         style="fill:#e88c00;fill-opacity:1" /></g></g></svg>
