<?xml version="1.0" encoding="UTF-8" standalone="no"?>
<!-- Created with Inkscape (http://www.inkscape.org/) -->

<svg
   width="56.881256mm"
   height="56.881668mm"
   viewBox="0 0 56.881256 56.881668"
   version="1.1"
   id="svg1"
   xml:space="preserve"
   sodipodi:docname="drawing.svg"
   inkscape:version="1.4-beta3 (01c8a1c, 2024-08-28, custom)"
   inkscape:export-filename="orphelins.svg"
   inkscape:export-xdpi="96"
   inkscape:export-ydpi="96"
   xmlns:inkscape="http://www.inkscape.org/namespaces/inkscape"
   xmlns:sodipodi="http://sodipodi.sourceforge.net/DTD/sodipodi-0.dtd"
   xmlns="http://www.w3.org/2000/svg"
   xmlns:svg="http://www.w3.org/2000/svg"><sodipodi:namedview
     id="namedview1"
     pagecolor="#ffffff"
     bordercolor="#000000"
     borderopacity="0.25"
     inkscape:showpageshadow="2"
     inkscape:pageopacity="0.0"
     inkscape:pagecheckerboard="0"
     inkscape:deskcolor="#d1d1d1"
     inkscape:document-units="mm"
     inkscape:zoom="0.72641739"
     inkscape:cx="237.46678"
     inkscape:cy="747.50413"
     inkscape:window-width="1440"
     inkscape:window-height="890"
     inkscape:window-x="-6"
     inkscape:window-y="-6"
     inkscape:window-maximized="1"
     inkscape:current-layer="layer2-2-2-2"
     showgrid="false"><inkscape:page
       x="-7.0956619e-15"
       y="-5.0356393e-13"
       width="56.881252"
       height="56.881664"
       id="page2"
       margin="0"
       bleed="0" /></sodipodi:namedview><defs
     id="defs1" /><g
     inkscape:groupmode="layer"
     id="layer2-2-2-2-5-9"
     inkscape:label="Layer 2"
     transform="matrix(0.57172836,0,0,0.57172836,-25.575756,-93.143818)"
     style="display:inline"><ellipse
       style="fill:#482991;fill-opacity:1;stroke:#ffffff;stroke-width:8;stroke-linecap:round;stroke-dasharray:none;stroke-opacity:1"
       id="path1-3-7-2-7-2"
       cx="94.479103"
       cy="212.66154"
       rx="45.744999"
       ry="45.745354" /><path
       d="m 93.435603,182.44271 c -2.903665,0.54808 -5.142634,2.27395 -5.958928,4.59456 -0.3615,1.00286 -0.373163,2.46053 -0.04664,3.85989 0.303193,1.2944 1.480986,3.66165 2.58881,5.18928 0.466453,0.64137 1.854148,2.42555 3.090246,3.96484 1.236099,1.53929 2.250633,2.8337 2.250633,2.86868 0,0.0467 -0.244887,0.0233 -0.548082,-0.0467 -0.314856,-0.0699 -1.900793,-0.12826 -3.533376,-0.12826 -2.612134,-0.0117 -3.148552,0.0233 -4.46628,0.25654 -2.91533,0.52475 -5.189285,1.24776 -7.544867,2.36725 -7.241672,3.47507 -9.970418,9.04916 -6.238803,12.73414 1.201116,1.18945 2.868686,2.04074 5.014365,2.57715 1.784178,0.44313 2.95031,0.57141 5.340879,0.55974 h 2.180667 v 3.44008 3.42842 l -0.314855,0.41982 c -0.256553,0.33818 -0.326518,0.5714 -0.361504,1.22444 -0.04664,0.73465 -0.0233,0.85127 0.314855,1.3877 l 0.361504,0.58305 v 5.13099 5.11931 l 4.874424,-0.0117 h 4.862766 l -3.230182,-1.63258 -3.241846,-1.62092 v -3.54502 c 0,-3.16022 0.02333,-3.55671 0.198247,-3.69664 0.279869,-0.24488 0.618047,-1.03786 0.618047,-1.51597 0,-0.53642 -0.198242,-1.11949 -0.536421,-1.58594 l -0.279873,-0.37316 v -3.66165 -3.66165 l 0.734665,-0.15161 c 1.387696,-0.2682 4.256378,-1.2944 5.818992,-2.07569 2.2623,-1.14282 3.45175,-1.98244 4.932734,-3.46341 1.91246,-1.91246 2.6238,-3.27684 2.71709,-5.16596 0.0933,-1.94744 -0.37316,-3.85989 -1.50431,-6.09887 -0.83962,-1.69089 -2.017414,-3.41676 -4.069804,-5.97059 -0.96788,-1.21277 -1.749192,-2.21564 -1.72587,-2.22731 0.02333,-0.0117 0.44313,-0.0933 0.94457,-0.17492 1.62092,-0.25655 3.02028,-0.85127 4.151424,-1.77251 l 0.68802,-0.5481 5.81899,1.45768 5.83066,1.45765 -1.09617,1.93579 c -2.05239,3.63832 -3.80158,7.41659 -4.69951,10.14533 -1.43434,4.38465 -1.06117,7.12506 1.28275,9.48065 2.61213,2.64712 6.542,2.90365 9.55061,0.62971 1.70255,-1.29442 2.79871,-3.54505 2.81038,-5.73737 0,-1.57428 -0.8163,-4.58289 -2.04074,-7.43992 -0.71133,-1.67922 -2.48385,-5.22426 -3.53337,-7.06674 -0.46645,-0.8163 -0.83961,-1.5043 -0.83961,-1.5393 0,-0.035 0.68801,0.11662 1.51597,0.32653 0.83961,0.20989 1.51596,0.37315 1.51596,0.34983 0,-0.0117 -0.76964,-0.48977 -1.71421,-1.06118 l -1.72587,-1.03786 0.99121,-0.0816 c 0.54808,-0.035 1.28274,-0.18658 1.64425,-0.31486 1.70255,-0.64137 2.63545,-2.3206 2.5305,-4.55956 l -0.035,-0.87461 -0.8163,-0.035 c -2.19232,-0.10496 -3.73161,0.72301 -4.52458,2.39057 -0.27987,0.61805 -0.3615,0.96789 -0.41981,1.90079 l -0.07,1.15448 -5.11931,-3.06693 -5.13098,-3.07859 -0.13994,-0.68801 c -0.73466,-3.59168 -5.282574,-6.05223 -9.667226,-5.22426 z m 4.034813,5.53912 c 0.11661,0.0699 0.3032,0.29153 0.40814,0.48978 0.5131,0.9912 -0.5714,2.07571 -1.62091,1.59758 -0.326522,-0.15159 -0.6647,-0.67634 -0.6647,-1.03784 0,-0.32652 0.303195,-0.88626 0.548082,-1.03786 0.268208,-0.16326 1.037858,-0.16326 1.329388,-0.0117 z"
       id="path1-7"
       style="display:inline;fill:#a78fdf;fill-opacity:1;stroke:none;stroke-width:0.0116613" /></g></svg>
