<?xml version="1.0" encoding="UTF-8" standalone="no"?>
<!-- Created with Inkscape (http://www.inkscape.org/) -->

<svg
   width="56.881256mm"
   height="56.881672mm"
   viewBox="0 0 56.881256 56.881672"
   version="1.1"
   id="svg1"
   xml:space="preserve"
   sodipodi:docname="drawing.svg"
   inkscape:version="1.4-beta3 (01c8a1c, 2024-08-28, custom)"
   inkscape:export-filename="0blacks.svg"
   inkscape:export-xdpi="96"
   inkscape:export-ydpi="96"
   xmlns:inkscape="http://www.inkscape.org/namespaces/inkscape"
   xmlns:sodipodi="http://sodipodi.sourceforge.net/DTD/sodipodi-0.dtd"
   xmlns="http://www.w3.org/2000/svg"
   xmlns:svg="http://www.w3.org/2000/svg"><sodipodi:namedview
     id="namedview1"
     pagecolor="#ffffff"
     bordercolor="#000000"
     borderopacity="0.25"
     inkscape:showpageshadow="2"
     inkscape:pageopacity="0.0"
     inkscape:pagecheckerboard="0"
     inkscape:deskcolor="#d1d1d1"
     inkscape:document-units="mm"
     inkscape:zoom="0.72641739"
     inkscape:cx="237.46678"
     inkscape:cy="747.50413"
     inkscape:window-width="1440"
     inkscape:window-height="890"
     inkscape:window-x="-6"
     inkscape:window-y="-6"
     inkscape:window-maximized="1"
     inkscape:current-layer="layer2-2-2-2"
     showgrid="false"><inkscape:page
       x="0"
       y="0"
       width="56.881256"
       height="56.881672"
       id="page2"
       margin="0"
       bleed="0" /></sodipodi:namedview><defs
     id="defs1" /><g
     inkscape:groupmode="layer"
     id="layer2-2"
     inkscape:label="Layer 2"
     transform="matrix(0.57172836,0,0,0.57172836,-25.575741,-93.143819)"
     style="display:inline"><ellipse
       style="fill:#b73233;fill-opacity:1;stroke:#ffffff;stroke-width:8;stroke-linecap:round;stroke-dasharray:none;stroke-opacity:1"
       id="path1-3"
       cx="94.479103"
       cy="212.66154"
       rx="45.744999"
       ry="45.745354" /><g
       style="fill:#5d0000;fill-opacity:1"
       id="g8"
       transform="matrix(0.25966545,0,0,0.25966545,69.705432,189.31576)"><path
         d="m 100.654,133.037 v 7.882 l 11.802,6.775 c 2.395,1.375 3.222,4.431 1.847,6.825 -0.924,1.61 -2.608,2.512 -4.341,2.512 -0.844,0 -1.7,-0.214 -2.484,-0.665 l -11.823,-6.788 -11.824,6.788 c -0.784,0.451 -1.641,0.665 -2.484,0.665 -1.732,0 -3.417,-0.901 -4.341,-2.512 -1.375,-2.395 -0.548,-5.451 1.847,-6.825 l 11.803,-6.775 v -7.882 c -0.369,-0.264 -0.725,-0.55 -1.054,-0.874 L 75.223,118.018 c -2.508,-2.468 -3.268,-6.166 -1.935,-9.423 1.333,-3.257 4.469,-5.361 7.987,-5.361 h 28.759 c 3.519,0 6.654,2.104 7.987,5.361 1.333,3.257 0.573,6.955 -1.936,9.423 l -14.378,14.146 c -0.329,0.324 -0.684,0.61 -1.053,0.873 z m 75.874,-71.645 c 5.517,14.341 22.875,65.02 3.198,89.445 -19.04,23.637 -50.229,31.811 -63.547,35.301 -2.048,0.536 -3.816,1 -4.895,1.351 -9.157,2.979 -14.995,3.064 -15.631,3.064 -0.636,0 -6.475,-0.086 -15.633,-3.064 -1.077,-0.351 -2.846,-0.814 -4.894,-1.351 C 61.808,182.648 30.619,174.474 11.579,150.837 -8.098,126.411 9.261,75.733 14.777,61.392 9.432,57.237 0,48.059 0,35.016 0,18.045 14.358,0.754 28.451,0.754 c 0.187,0 0.373,0.003 0.56,0.01 9.311,0.321 17.076,10.051 21.155,16.373 3.383,-2.174 8.169,-4.457 13.344,-4.457 h 64.288 c 5.175,0 9.961,2.283 13.344,4.457 4.079,-6.322 11.845,-16.052 21.156,-16.373 0.188,-0.007 0.372,-0.01 0.56,-0.01 14.092,0 28.45,17.291 28.45,34.262 0,13.043 -9.432,22.221 -14.78,26.376 z M 62.733,87.506 c 6.585,0 12.359,-4.449 14.043,-10.82 0.557,-2.104 -0.313,-4.328 -2.15,-5.496 L 59.3,61.442 c -1.841,-1.171 -4.224,-1.013 -5.895,0.386 -3.31,2.772 -5.207,6.834 -5.207,11.144 0,8.014 6.521,14.534 14.535,14.534 z m 67.909,41.914 c 0,-13.947 -6.198,-25.626 -18.422,-34.713 -4.814,-3.578 -10.543,-5.47 -16.565,-5.47 -6.023,0 -11.752,1.892 -16.566,5.47 -12.224,9.087 -18.422,20.766 -18.422,34.713 0,21.661 15.075,30.924 27.722,34.88 4.712,1.473 9.82,1.473 14.532,0 12.645,-3.956 27.721,-13.218 27.721,-34.88 z M 143.11,72.971 c 0,-4.31 -1.897,-8.371 -5.207,-11.144 -1.671,-1.399 -4.056,-1.558 -5.895,-0.386 l -15.326,9.748 c -1.837,1.168 -2.707,3.392 -2.15,5.496 1.684,6.371 7.458,10.82 14.043,10.82 8.015,0.001 14.535,-6.519 14.535,-14.534 z"
         id="path1-1"
         style="fill:#5d0000;fill-opacity:1" /></g></g></svg>
