<?xml version="1.0" encoding="UTF-8" standalone="no"?>
<!-- Created with Inkscape (http://www.inkscape.org/) -->

<svg
   width="56.881252mm"
   height="56.881672mm"
   viewBox="0 0 56.881252 56.881672"
   version="1.1"
   id="svg1"
   xml:space="preserve"
   sodipodi:docname="drawing.svg"
   inkscape:version="1.4-beta3 (01c8a1c, 2024-08-28, custom)"
   inkscape:export-filename="0verts.svg"
   inkscape:export-xdpi="96"
   inkscape:export-ydpi="96"
   xmlns:inkscape="http://www.inkscape.org/namespaces/inkscape"
   xmlns:sodipodi="http://sodipodi.sourceforge.net/DTD/sodipodi-0.dtd"
   xmlns="http://www.w3.org/2000/svg"
   xmlns:svg="http://www.w3.org/2000/svg"><sodipodi:namedview
     id="namedview1"
     pagecolor="#ffffff"
     bordercolor="#000000"
     borderopacity="0.25"
     inkscape:showpageshadow="2"
     inkscape:pageopacity="0.0"
     inkscape:pagecheckerboard="0"
     inkscape:deskcolor="#d1d1d1"
     inkscape:document-units="mm"
     inkscape:zoom="0.72641739"
     inkscape:cx="237.46678"
     inkscape:cy="747.50413"
     inkscape:window-width="1440"
     inkscape:window-height="890"
     inkscape:window-x="-6"
     inkscape:window-y="-6"
     inkscape:window-maximized="1"
     inkscape:current-layer="layer2-2-2-2"
     showgrid="false"><inkscape:page
       x="1.3185715e-15"
       y="0"
       width="56.881248"
       height="56.881672"
       id="page2"
       margin="0"
       bleed="0" /></sodipodi:namedview><defs
     id="defs1" /><g
     inkscape:groupmode="layer"
     id="layer2-2-2-2-5"
     inkscape:label="Layer 2"
     transform="matrix(0.57172836,0,0,0.57172836,-25.57576,-93.143802)"
     style="display:inline"><ellipse
       style="fill:#5da14a;fill-opacity:1;stroke:#ffffff;stroke-width:8;stroke-linecap:round;stroke-dasharray:none;stroke-opacity:1"
       id="path1-3-7-2-7"
       cx="94.479103"
       cy="212.66154"
       rx="45.744999"
       ry="45.745354" /><path
       d="m 98.793525,188.26296 c -0.29159,0.50217 -1.18255,1.97631 -1.97631,3.27225 -0.80996,1.29593 -1.99251,3.22364 -2.64048,4.27659 -0.64797,1.06916 -1.42553,2.3003 -1.70092,2.75388 -0.29158,0.45357 -0.58317,0.93955 -0.64797,1.06915 -0.0486,0.12959 -0.29158,0.53457 -0.51837,0.89096 -0.22679,0.35638 -0.50218,0.79376 -0.61557,0.97195 -0.0972,0.17819 -0.82617,1.36074 -1.58753,2.62428 l -1.40934,2.30029 0.50218,0.72897 c 0.27539,0.38878 0.50218,0.76136 0.50218,0.82616 0,0.0486 0.32398,0.59937 0.72896,1.21494 0.40499,0.61557 0.80997,1.29594 0.92336,1.52273 0.0972,0.22679 0.24299,0.42118 0.32399,0.42118 0.0648,0 0.12959,0.081 0.12959,0.17819 0,0.0972 0.22679,0.48598 0.48598,0.87476 0.27538,0.38878 0.48598,0.76137 0.48598,0.82616 0,0.0648 0.0972,0.24299 0.22678,0.37259 0.1296,0.14579 0.37259,0.51837 0.55078,0.82616 0.16199,0.30778 0.69657,1.18254 1.16634,1.94391 1.94391,3.12645 2.00871,3.25604 1.76572,3.41804 -0.12959,0.081 -0.27539,0.14579 -0.34018,0.14579 -0.1296,0 -0.82616,-1.11775 -3.12646,-4.94077 -0.95575,-1.60372 -1.9925,-3.28845 -2.26789,-3.72583 -0.56697,-0.87475 -3.11026,-5.00556 -4.3252,-7.01427 -2.60808,-4.3414 -3.30464,-5.44294 -3.46664,-5.49154 -0.12959,-0.0486 -1.68472,2.21929 -1.68472,2.46228 0,0.0648 -0.21059,0.40498 -0.45358,0.77757 -0.25919,0.37258 -1.50653,2.39748 -2.78627,4.48719 -1.26354,2.0897 -2.54328,4.1632 -2.83487,4.61678 -0.27538,0.43738 -0.93955,1.52273 -1.47413,2.39749 -0.51837,0.85856 -1.16634,1.92771 -1.44173,2.36509 -0.25919,0.43738 -0.76136,1.26354 -1.10155,1.84671 -0.79376,1.36074 -0.89096,1.44174 -1.58752,1.24735 -0.74517,-0.22679 -2.99686,-0.1944 -3.79063,0.0324 l -0.64797,0.1782 1.52273,0.29158 c 3.04546,0.58318 4.76258,1.34454 8.31021,3.64483 2.70528,1.76572 4.60059,2.59188 7.41926,3.23985 1.76572,0.42118 6.70648,0.42118 8.5046,0 1.61993,-0.35638 2.98066,-0.80996 4.13081,-1.37693 1.08535,-0.53458 4.38999,-2.2841 4.61678,-2.44609 0.38878,-0.30779 3.320845,-1.16635 4.665385,-1.37694 1.74952,-0.27538 4.98936,-0.32398 6.64169,-0.0648 1.40933,0.21059 3.95261,1.03675 5.79932,1.89531 3.90403,1.79811 5.26476,2.1383 8.6666,2.1383 1.37694,0 2.49469,-0.0486 2.49469,-0.12959 0,-0.0648 -0.66417,-0.24299 -1.47413,-0.40498 -0.80997,-0.162 -2.05731,-0.48598 -2.77008,-0.71277 -1.11775,-0.35639 -1.31213,-0.48598 -1.58752,-1.00436 -0.1782,-0.32398 -0.76137,-1.27974 -1.29594,-2.1221 -0.55078,-0.84236 -1.03675,-1.65232 -1.08535,-1.78191 -0.0648,-0.1296 -0.43738,-0.76137 -0.84236,-1.37694 -0.93956,-1.42553 -0.97196,-1.49033 -1.52273,-2.44609 -0.24299,-0.43738 -1.39314,-2.33269 -2.54328,-4.1956 -1.15015,-1.87911 -2.51089,-4.08221 -3.02926,-4.92457 -0.51838,-0.84236 -1.26354,-2.0735 -1.66852,-2.72147 -0.40499,-0.64797 -1.60373,-2.62428 -2.65668,-4.39 -1.06915,-1.74952 -2.2193,-3.61243 -2.55948,-4.11461 -0.34019,-0.50217 -0.61557,-0.98815 -0.61557,-1.06915 0,-0.0648 -0.1296,-0.27538 -0.27539,-0.45358 -0.16199,-0.17819 -0.43738,-0.56697 -0.59937,-0.87476 -0.29159,-0.51837 -0.58318,-1.02055 -1.76572,-2.86726 -0.24299,-0.38878 -0.43738,-0.76137 -0.43738,-0.85856 0,-0.081 -0.0648,-0.16199 -0.14579,-0.16199 -0.081,0 -0.226786,-0.2268 -0.340186,-0.48598 -0.11339,-0.27539 -0.24298,-0.48598 -0.30778,-0.48598 -0.0486,0 -0.340189,0.42118 -0.615569,0.93956 z m 0.988149,6.07471 c 0.17819,0.27539 0.453576,0.77757 0.631766,1.08535 0.17819,0.30779 0.55078,0.92336 0.82616,1.37694 0.29159,0.43738 0.71277,1.11775 0.95576,1.49033 0.24299,0.38878 0.43738,0.76136 0.43738,0.85856 0,0.081 0.081,0.16199 0.16199,0.16199 0.0972,0 0.16199,0.0648 0.16199,0.1296 0,0.081 1.03676,1.84671 2.3003,3.93641 1.26354,2.0897 2.47848,4.11461 2.70527,4.51959 0.22679,0.40498 0.46978,0.74517 0.53458,0.77757 0.0648,0.0324 0.12959,0.11339 0.12959,0.17819 0,0.11339 1.06915,1.92771 3.51524,5.92892 0.0972,0.17819 0.56697,0.93956 1.02055,1.68472 0.45358,0.74517 0.79376,1.37694 0.77756,1.40934 -0.0324,0.0324 -0.38878,-0.37259 -0.80996,-0.87476 -0.40498,-0.50218 -0.89096,-1.06915 -1.05295,-1.24735 -0.162,-0.17819 -0.50218,-0.58317 -0.76137,-0.89095 -0.25918,-0.30779 -0.85856,-1.00436 -1.31214,-1.53893 -0.46977,-0.53458 -1.66852,-1.92771 -2.67287,-3.07786 -0.98815,-1.16634 -2.0735,-2.39749 -2.39749,-2.75387 -0.32398,-0.37258 -1.10155,-1.26354 -1.71712,-2.00871 l -1.11775,-1.34453 -0.30778,0.79376 c -0.17819,0.42118 -0.53458,1.39314 -0.80996,2.1545 -0.27539,0.76136 -0.59938,1.50653 -0.71277,1.66852 -0.17819,0.29159 -0.19439,0.27539 -0.307786,-0.081 -0.0486,-0.19439 -0.42118,-1.39314 -0.80996,-2.64048 -0.388779,-1.24734 -0.826159,-2.68908 -0.971949,-3.20745 -0.1458,-0.50218 -0.32399,-0.89096 -0.40498,-0.84236 -0.081,0.0486 -0.25919,0.46977 -0.42119,0.93955 -0.14579,0.45358 -0.30778,0.90716 -0.37258,1.00436 -0.0486,0.081 -0.17819,0.45358 -0.27539,0.80996 -0.11339,0.35638 -0.37258,1.11775 -0.58317,1.66852 l -0.40498,1.03675 -0.53457,-1.36073 c -0.29159,-0.72897 -0.55078,-1.37694 -0.58318,-1.40934 -0.0648,-0.0648 -0.79376,0.59938 -2.70527,2.41369 -1.05295,1.00435 -1.23114,1.13395 -1.08535,0.72896 0.0972,-0.25918 0.35638,-0.71276 0.58317,-1.00435 0.21059,-0.27538 0.38879,-0.55077 0.38879,-0.59937 0,-0.0486 0.19439,-0.38878 0.45357,-0.77756 0.24299,-0.38879 0.51838,-0.84236 0.63177,-1.02056 0.32399,-0.55077 2.2193,-3.64483 3.12646,-5.10276 0.46978,-0.76136 1.00435,-1.63612 1.16634,-1.94391 0.1782,-0.30778 0.56698,-0.93955 0.85856,-1.39313 0.30779,-0.45358 0.63177,-1.02056 0.74517,-1.24734 0.11339,-0.24299 0.25919,-0.43738 0.340179,-0.43738 0.0648,0 0.1296,-0.1134 0.1296,-0.24299 0,-0.38878 0.22679,-0.27539 0.55077,0.29158 z m -16.960609,10.02734 c 1.31214,2.23549 1.44173,2.44608 2.0897,3.46664 0.34019,0.55077 0.77757,1.24734 0.95576,1.53892 0.34018,0.58318 0.38878,0.66417 2.42989,4.06601 0.71276,1.18255 1.47413,2.42989 1.66852,2.78627 0.21059,0.35639 0.63177,1.02056 0.90716,1.47413 1.21494,1.89532 0.66417,1.53893 -1.36074,-0.87475 -0.40498,-0.48598 -0.80996,-0.95576 -0.89096,-1.05296 -0.0972,-0.0972 -0.59937,-0.69656 -1.13395,-1.31213 -0.53457,-0.63177 -1.26354,-1.45794 -1.61992,-1.86292 -0.35638,-0.40498 -0.93956,-1.08535 -1.27974,-1.50653 -0.35638,-0.42118 -0.69657,-0.76136 -0.76136,-0.76136 -0.0648,0 -0.22679,0.30778 -0.37259,0.68037 -0.14579,0.38878 -0.40498,1.13394 -0.59937,1.65232 l -0.35638,0.95575 -0.21059,-0.50217 c -0.1134,-0.27539 -0.37259,-1.06915 -0.55078,-1.74952 -0.19439,-0.69657 -0.42118,-1.37694 -0.50217,-1.50653 -0.081,-0.14579 -0.19439,-0.50218 -0.27539,-0.80996 l -0.12959,-0.55078 -0.45358,1.19875 c -0.24299,0.66417 -0.58318,1.52273 -0.74517,1.92771 l -0.30778,0.72896 -0.37259,-0.85856 c -0.21059,-0.45357 -0.42118,-0.84236 -0.46977,-0.84236 -0.1134,0 -0.59938,0.40498 -1.52274,1.27974 -0.87475,0.82616 -1.23114,1.02056 -0.85855,0.50218 0.14579,-0.22679 0.43738,-0.69657 0.61557,-1.03675 0.19439,-0.34019 0.64797,-1.11775 1.02055,-1.70092 0.37258,-0.59937 0.76136,-1.21494 0.87476,-1.39314 0.11339,-0.17819 0.72896,-1.19874 1.37693,-2.26789 0.64797,-1.06915 1.21495,-1.97631 1.26355,-2.02491 0.0486,-0.0486 0.21058,-0.27538 0.37258,-0.53457 0.16199,-0.24299 0.30778,-0.43738 0.34018,-0.43738 0.0324,0 0.42118,0.59937 0.85856,1.32834 z"
       id="path1-38"
       style="display:inline;fill:#26431e;fill-opacity:1;stroke:none;stroke-width:0.0161992" /></g></svg>
