<!-- Generated by IcoMoon.io -->
<svg version="1.1" xmlns="http://www.w3.org/2000/svg" width="1024" height="1024" viewBox="0 0 1024 1024">
<g id="icomoon-ignore">
</g>
<path fill="#19162a" stroke="#fff" stroke-linejoin="miter" stroke-linecap="round" stroke-miterlimit="4" stroke-width="12.2485" d="M840.249 521.448c0 188.807-153.059 341.866-341.866 341.866s-341.866-153.059-341.866-341.866c0-188.807 153.059-341.866 341.866-341.866s341.866 153.059 341.866 341.866z"></path>
<path fill="#fff" opacity="0.986" d="M709.644 365.221c-28.858 0-57.716 0-86.574 0 0-8.966 0-17.931 0-26.897-85.733 0-171.467 0-257.2 0 0 8.966 0 17.931 0 26.897-28.858 0-57.716 0-86.574 0 0 14.009 0 28.017 0 42.026 1.692 20.076 6.035 39.689 13.028 58.837 16.126 42.462 44.564 73.701 85.313 93.718 18.466 35.265 47.185 57.259 86.154 65.981 0.42 25.775 0.561 51.551 0.42 77.328-18.212 0-36.422 0-54.634 0 0 17.931 0 35.863 0 53.794 56.595 0 113.191 0 169.786 0 0-17.931 0-35.863 0-53.794-18.212 0-36.422 0-54.634 0-0.14-25.777 0-51.554 0.42-77.328 38.969-8.722 67.687-30.716 86.154-65.981 13.894-6.239 26.502-14.365 37.824-24.375 36.8-34.799 56.972-77.526 60.518-128.18 0-14.009 0-28.017 0-42.026zM493.63 394.639c0.736-0.11 1.297 0.17 1.681 0.841 6.057 12.253 12.22 24.441 18.492 36.563 14.037 2.085 28.046 4.327 42.026 6.724-9.865 9.763-19.811 19.429-29.839 28.998 1.87 14.303 3.832 28.592 5.884 42.867-12.301-6.781-24.769-13.225-37.403-19.332-12.635 6.107-25.102 12.552-37.403 19.332 2.052-14.275 4.014-28.564 5.884-42.867-10.027-9.569-19.973-19.235-29.839-28.998 13.98-2.397 27.989-4.639 42.026-6.724 6.509-12.318 12.673-24.786 18.492-37.403zM323.844 408.928c14.009 0 28.017 0 42.026 0 0.14 30.261 0 60.519-0.42 90.777-24.978-25.029-38.847-55.288-41.606-90.777zM623.070 408.928c14.009 0 28.017 0 42.026 0-2.759 35.489-16.628 65.747-41.606 90.777-0.42-30.257-0.561-60.516-0.42-90.777z"></path>
</svg>
