<!-- Generated by IcoMoon.io -->
<svg version="1.1" xmlns="http://www.w3.org/2000/svg" width="1024" height="1024" viewBox="0 0 1024 1024">
<g id="icomoon-ignore">
</g>
<path fill="#19162a" stroke="#fff" stroke-linejoin="miter" stroke-linecap="round" stroke-miterlimit="4" stroke-width="12.2485" d="M840.249 521.448c0 188.807-153.059 341.866-341.866 341.866s-341.866-153.059-341.866-341.866c0-188.807 153.059-341.866 341.866-341.866s341.866 153.059 341.866 341.866z"></path>
<path fill="#fff" d="M347.578 308.449c-26.538 6.753-45.277 29.202-47.084 56.596-1.332 19.975 8.466 41.092 24.351 52.696 11.509 8.466 23.304 12.27 37.667 12.175 38.238-0.19 67.44-35.575 60.020-72.576-4.375-21.687-19.499-39.379-40.045-46.894-6.373-2.283-9.322-2.758-18.548-3.044-7.324-0.19-12.746 0.095-16.361 1.046z"></path>
<path fill="#fff" d="M625.897 308.354c-13.792 3.9-21.782 8.656-31.199 18.643-22.829 24.16-21.782 62.113 2.378 85.702 18.358 17.978 46.799 22.543 69.722 11.224 22.543-11.224 36.145-34.433 34.528-58.879-1.617-25.397-17.597-46.418-41.757-54.884-8.656-3.139-25.777-3.995-33.672-1.807z"></path>
<path fill="#fff" d="M482.552 370.371c-18.453 3.995-33.482 12.175-46.894 25.492-13.697 13.792-21.687 28.821-25.682 48.225-2.283 11.605-1.427 30.724 1.902 42.043 5.136 17.121 12.651 29.677 24.636 41.282 18.263 17.597 38.904 25.968 64.396 25.968s46.133-8.37 64.396-25.968c11.985-11.605 19.499-24.16 24.636-41.282 3.329-11.319 4.185-30.438 1.902-42.043-3.995-19.404-11.985-34.433-25.682-48.225-13.602-13.507-28.631-21.592-47.464-25.492-9.036-1.902-27.394-1.902-36.145 0z"></path>
<path fill="#fff" d="M291.172 432.199c-9.417 4.851-15.219 16.265-19.119 37.572-1.332 6.944-1.712 14.363-1.712 32.721-0.095 23.019 0 23.97 2.188 28.726 2.663 5.897 10.178 13.412 17.026 16.836 8.751 4.471 14.934 5.327 38.048 5.327h21.212l2.568-3.044c4.28-5.136 16.265-13.983 24.065-17.978 9.036-4.471 21.021-8.085 30.153-8.941l6.658-0.666-3.424-5.422c-10.939-17.026-17.312-42.518-15.79-63.159l0.666-8.561-2.283 0.666c-13.887 4.090-31.389 5.422-43.279 3.424-10.273-1.807-21.592-5.993-34.433-12.556-13.602-6.944-17.217-7.705-22.543-4.946z"></path>
<path fill="#fff" d="M687.82 437.145c-12.461 6.563-23.78 10.653-34.148 12.556-11.89 1.998-29.392 0.666-43.279-3.424l-2.283-0.666 0.666 8.561c1.522 20.641-4.851 46.133-15.79 63.159l-3.424 5.327 6.278 0.666c19.69 1.998 41.662 12.746 53.837 26.348l3.424 3.71h21.116c23.114 0 29.297-0.856 38.048-5.327 6.849-3.424 14.363-10.939 17.026-16.836 2.188-4.756 2.283-5.707 2.188-28.726 0-18.358-0.38-25.777-1.712-32.721-3.424-18.643-8.275-29.487-15.98-35.575-2.758-2.188-4.756-2.949-8.561-3.139-4.661-0.285-6.088 0.19-17.407 6.088z"></path>
<path fill="#fff" d="M400.75 539.684c-14.648 2.663-27.014 9.417-37.477 20.546-19.88 21.212-31.675 62.208-31.865 111.099 0 14.078 0.285 17.787 1.902 24.065 5.422 19.88 18.453 33.482 38.714 40.426l7.61 2.568h242.554l7.61-2.568c20.26-6.944 33.292-20.546 38.714-40.426 3.615-13.602 2.188-49.842-3.139-75.715-7.8-39.094-25.207-65.537-49.747-75.715-7.99-3.329-23.685-6.278-28.441-5.422-1.712 0.285-8.275 3.9-14.553 7.99-29.106 19.024-46.038 24.921-71.72 24.921-25.397 0-42.899-5.993-70.959-24.446-15.029-9.797-15.219-9.892-29.202-7.324z"></path>
</svg>
